<svg xmlns="http://www.w3.org/2000/svg" version="1.1" xmlns:xlink="http://www.w3.org/1999/xlink"
    xmlns:svgjs="http://svgjs.dev/svgjs" width="2000" height="1252" viewBox="0 0 2000 1252">
    <g transform="matrix(1,0,0,1,-1.2121212121212466,-2.01935483870966)">
        <svg viewBox="0 0 396 248" data-background-color="#f8f8f8"
            preserveAspectRatio="xMidYMid meet" height="1252" width="2000"
            xmlns="http://www.w3.org/2000/svg" xmlns:xlink="http://www.w3.org/1999/xlink">
            <g id="tight-bounds" transform="matrix(1,0,0,1,0.2400000000000091,0.4000000000000057)">
                <svg viewBox="0 0 395.52 247.2" height="247.2" width="395.52">
                    <g>
                        <svg></svg>
                    </g>
                    <g>
                        <svg viewBox="0 0 395.52 247.2" height="247.2" width="395.52">
                            <g transform="matrix(1,0,0,1,97.78833741450646,47.215199999999996)">
                                <svg viewBox="0 0 199.94332517098707 152.7696" height="152.7696"
                                    width="199.94332517098707">
                                    <g>
                                        <svg viewBox="0 0 199.94332517098707 152.7696"
                                            height="152.7696" width="199.94332517098707">
                                            <g>
                                                <svg viewBox="0 0 199.94332517098707 152.7696"
                                                    height="152.7696" width="199.94332517098707">
                                                    <g>
                                                        <svg
                                                            viewBox="0 0 199.94332517098707 152.7696"
                                                            height="152.7696"
                                                            width="199.94332517098707">
                                                            <g id="textblocktransform">
                                                                <svg
                                                                    viewBox="0 0 199.94332517098707 152.7696"
                                                                    height="152.7696"
                                                                    width="199.94332517098707"
                                                                    id="textblock">
                                                                    <g>
                                                                        <svg
                                                                            viewBox="0 0 199.94332517098707 152.7696"
                                                                            height="152.7696"
                                                                            width="199.94332517098707">
                                                                            <g
                                                                                transform="matrix(1,0,0,1,0,0)">
                                                                                <svg
                                                                                    width="199.94332517098707"
                                                                                    viewBox="0.4200000000000008 -35.279999999999994 121.09 81.91"
                                                                                    height="152.7696"
                                                                                    data-palette-color="#61777f">
                                                                                    <svg></svg>
                                                                                    <svg></svg>
                                                                                    <g
                                                                                        class="wordmark-text-0"
                                                                                        data-fill-palette-color="primary"
                                                                                        id="text-0">
                                                                                        <path
                                                                                            d="M11.47 0.39v0c-3.58 0-6.143-0.63-7.69-1.89-1.547-1.26-2.383-3.363-2.51-6.31v0c-0.133-1.693-0.093-3.427 0.12-5.2v0h5.47c-0.1 1.12-0.153 2.217-0.16 3.29-0.007 1.073 0.047 2.077 0.16 3.01v0c0.08 0.747 0.473 1.32 1.18 1.72 0.713 0.4 1.85 0.6 3.41 0.6v0c1.547 0 2.657-0.2 3.33-0.6 0.68-0.4 1.067-0.973 1.16-1.72v0c0.113-0.847 0.163-1.65 0.15-2.41-0.02-0.753-0.07-1.553-0.15-2.4v0c-0.08-0.7-0.34-1.32-0.78-1.86-0.44-0.533-1.31-0.89-2.61-1.07v0l-4.05-0.86c-1.92-0.373-3.4-0.91-4.44-1.61-1.033-0.7-1.76-1.58-2.18-2.64-0.42-1.053-0.663-2.297-0.73-3.73v0c-0.033-0.687-0.047-1.337-0.04-1.95 0.007-0.62 0.027-1.24 0.06-1.86v0c0.1-2.913 0.923-5.003 2.47-6.27 1.547-1.273 4.15-1.91 7.81-1.91v0c3.453 0 5.953 0.637 7.5 1.91 1.54 1.267 2.37 3.357 2.49 6.27v0c0.047 0.653 0.057 1.457 0.03 2.41-0.02 0.947-0.057 1.853-0.11 2.72v0h-5.52c0.147-2.133 0.163-4.21 0.05-6.23v0c-0.127-1.527-1.613-2.29-4.46-2.29v0c-1.547 0-2.663 0.193-3.35 0.58-0.68 0.393-1.07 0.963-1.17 1.71v0c-0.113 0.813-0.167 1.633-0.16 2.46 0.007 0.82 0.06 1.637 0.16 2.45v0c0.08 0.713 0.34 1.327 0.78 1.84 0.44 0.513 1.35 0.86 2.73 1.04v0l3.74 0.71c1.987 0.353 3.51 0.897 4.57 1.63 1.053 0.733 1.797 1.643 2.23 2.73 0.433 1.08 0.68 2.353 0.74 3.82v0c0.053 0.647 0.07 1.273 0.05 1.88-0.013 0.6-0.043 1.21-0.09 1.83v0c-0.133 2.947-0.977 5.05-2.53 6.31-1.553 1.26-4.107 1.89-7.66 1.89zM32.15 7.98v0c-2.453 0-4.327-0.323-5.62-0.97-1.3-0.653-2.063-1.55-2.29-2.69v0c-0.013-0.16-0.033-0.38-0.06-0.66-0.02-0.273-0.017-0.54 0.01-0.8v0c0.067-0.587 0.367-1.133 0.9-1.64 0.527-0.507 1.23-0.8 2.11-0.88v0-0.83c-1.647-0.227-2.543-1-2.69-2.32v0c-0.047-0.353-0.047-0.777 0-1.27v0c0.067-0.567 0.38-1.03 0.94-1.39 0.56-0.36 1.263-0.597 2.11-0.71v0-0.83c-1.14-0.52-1.98-1.283-2.52-2.29-0.547-1.013-0.877-2.357-0.99-4.03v0c-0.053-0.813-0.083-1.497-0.09-2.05-0.007-0.553 0.023-1.107 0.09-1.66v0c0.147-2.473 0.813-4.277 2-5.41 1.187-1.133 3.22-1.7 6.1-1.7v0c1.86 0 3.327 0.217 4.4 0.65 1.073 0.433 1.903 1.113 2.49 2.04v0h0.83c0.113-0.813 0.433-1.4 0.96-1.76 0.533-0.353 1.337-0.53 2.41-0.53v0 4.41h-0.74c-0.713 0-1.27 0.143-1.67 0.43-0.4 0.287-0.613 0.813-0.64 1.58v0 1.12c0 0.507 0.003 0.95 0.01 1.33 0.007 0.38-0.013 0.897-0.06 1.55v0c-0.167 2.607-0.84 4.45-2.02 5.53-1.18 1.08-3.177 1.62-5.99 1.62v0c-1.367 0-2.317 0.087-2.85 0.26-0.527 0.173-0.79 0.447-0.79 0.82v0 0.12c0.02 0.393 0.227 0.657 0.62 0.79 0.4 0.14 1.397 0.227 2.99 0.26v0c2.833 0.033 4.933 0.48 6.3 1.34 1.367 0.867 2.167 2.087 2.4 3.66v0c0.06 0.54 0.06 1.167 0 1.88v0c-0.36 3.353-3.243 5.03-8.65 5.03zM32.1-10.6v0c1.047 0 1.757-0.177 2.13-0.53 0.373-0.36 0.593-0.8 0.66-1.32v0c0.047-0.373 0.08-0.913 0.1-1.62 0.013-0.713 0.013-1.427 0-2.14-0.02-0.72-0.053-1.267-0.1-1.64v0c-0.067-0.633-0.3-1.113-0.7-1.44-0.4-0.327-1.097-0.49-2.09-0.49v0c-0.987 0-1.69 0.17-2.11 0.51-0.413 0.333-0.637 0.833-0.67 1.5v0c-0.147 2.307-0.147 4.03 0 5.17v0c0.033 0.507 0.233 0.967 0.6 1.38 0.367 0.413 1.093 0.62 2.18 0.62zM32.28 3.96v0c2.487 0 3.86-0.483 4.12-1.45v0c0.1-0.353 0.083-0.75-0.05-1.19v0c-0.293-0.927-1.643-1.39-4.05-1.39v0c-2.293 0-3.57 0.453-3.83 1.36v0c-0.1 0.44-0.11 0.847-0.03 1.22v0c0.133 0.46 0.51 0.817 1.13 1.07 0.613 0.253 1.517 0.38 2.71 0.38zM50.88-31.69v4.47h-5.4v-4.47zM50.88-23.75v23.75h-5.4v-23.75z"
                                                                                            fill="#61777f"
                                                                                            fill-rule="nonzero"
                                                                                            stroke="none"
                                                                                            stroke-width="1"
                                                                                            stroke-linecap="butt"
                                                                                            stroke-linejoin="miter"
                                                                                            stroke-miterlimit="10"
                                                                                            stroke-dasharray=""
                                                                                            stroke-dashoffset="0"
                                                                                            font-family="none"
                                                                                            font-weight="none"
                                                                                            font-size="none"
                                                                                            text-anchor="none"
                                                                                            style="mix-blend-mode: normal"
                                                                                            data-fill-palette-color="primary"
                                                                                            opacity="1"></path>
                                                                                        <path
                                                                                            d="M7.57 38.45l-1.27 7.81h-5.88l5.9-34.86h9.92l5.9 34.86h-5.86l-1.24-7.81zM10.42 16.57l-1.26 9.01-1.08 7.69h6.42l-1.05-7.69-1.27-9.01zM41.6 22.51l-4.69 23.75h-9.37l-4.57-23.75h5.5l1.83 11.91 1.02 7.52h1.79l1.07-7.52 1.95-11.91zM49.32 46.55v0c-1.987 0-3.453-0.427-4.4-1.28-0.94-0.853-1.5-2.323-1.68-4.41v0c-0.02-0.227-0.033-0.51-0.04-0.85-0.007-0.34 0.007-0.633 0.04-0.88v0c0.127-1.627 0.66-2.903 1.6-3.83 0.933-0.927 2.573-1.773 4.92-2.54v0c0.847-0.26 1.69-0.48 2.53-0.66 0.847-0.18 1.72-0.36 2.62-0.54v0-3.07c0-0.64-0.203-1.133-0.61-1.48-0.407-0.353-1.163-0.53-2.27-0.53v0c-0.96 0-1.657 0.143-2.09 0.43-0.433 0.287-0.673 0.747-0.72 1.38v0c-0.02 0.18-0.033 0.493-0.04 0.94-0.007 0.447-0.007 0.893 0 1.34 0.007 0.453 0.02 0.8 0.04 1.04v0h-5.23c-0.013-0.127-0.033-0.493-0.06-1.1-0.02-0.6-0.013-1.113 0.02-1.54v0c0.093-2.387 0.75-4.127 1.97-5.22 1.22-1.093 3.303-1.64 6.25-1.64v0c3.06 0 5.17 0.607 6.33 1.82 1.153 1.213 1.723 3.203 1.71 5.97v0l-0.03 16.36h-5.32v-2.56h-0.78c-0.507 0.993-1.11 1.717-1.81 2.17-0.7 0.453-1.683 0.68-2.95 0.68zM51.37 42.33v0c0.827 0 1.533-0.147 2.12-0.44 0.587-0.293 1.05-0.667 1.39-1.12v0-5.42c-0.633 0.093-1.263 0.207-1.89 0.34-0.627 0.127-1.273 0.273-1.94 0.44v0c-0.98 0.327-1.637 0.75-1.97 1.27-0.333 0.52-0.523 1.097-0.57 1.73v0c-0.047 0.507-0.037 0.93 0.03 1.27v0c0.173 1.287 1.117 1.93 2.83 1.93zM69.56 14.57v31.69h-5.45v-31.69zM81.88 46.63v0c-3.073 0-5.243-0.607-6.51-1.82-1.273-1.213-1.973-3.243-2.1-6.09v0c-0.053-0.607-0.09-1.473-0.11-2.6-0.027-1.133-0.033-2.273-0.02-3.42 0.02-1.147 0.063-2.053 0.13-2.72v0c0.147-2.82 0.847-4.837 2.1-6.05 1.253-1.213 3.423-1.82 6.51-1.82v0c3.113 0 5.287 0.613 6.52 1.84 1.24 1.22 1.923 3.23 2.05 6.03v0c0.067 0.613 0.11 1.483 0.13 2.61 0.013 1.12 0.013 2.253 0 3.4-0.02 1.153-0.063 2.063-0.13 2.73v0c-0.147 2.813-0.833 4.833-2.06 6.06-1.227 1.233-3.397 1.85-6.51 1.85zM81.88 42.26v0c1.14 0 1.957-0.18 2.45-0.54 0.487-0.36 0.747-0.863 0.78-1.51v0c0.08-1.84 0.12-3.793 0.12-5.86 0-2.067-0.04-4.02-0.12-5.86v0c-0.033-0.653-0.29-1.15-0.77-1.49-0.48-0.347-1.3-0.52-2.46-0.52v0c-1.133 0-1.953 0.173-2.46 0.52-0.507 0.34-0.777 0.837-0.81 1.49v0c-0.093 1.84-0.147 3.797-0.16 5.87-0.007 2.073 0.047 4.023 0.16 5.85v0c0.033 0.647 0.307 1.15 0.82 1.51 0.513 0.36 1.33 0.54 2.45 0.54zM99.15 28.1v18.16h-5.38v-23.75h5.38v2.53h0.95c0.567-0.96 1.19-1.687 1.87-2.18 0.673-0.5 1.677-0.75 3.01-0.75v0c1.267 0 2.32 0.257 3.16 0.77 0.84 0.513 1.447 1.363 1.82 2.55v0h0.88c0.587-0.94 1.273-1.727 2.06-2.36 0.793-0.64 1.847-0.96 3.16-0.96v0c1.76 0 3.107 0.51 4.04 1.53 0.94 1.02 1.41 2.733 1.41 5.14v0 17.48h-5.35v-17.99c0-1.253-0.763-1.88-2.29-1.88v0c-0.72 0-1.397 0.183-2.03 0.55-0.633 0.367-1.107 0.793-1.42 1.28v0 18.04h-5.34v-17.99c-0.02-1.253-0.793-1.88-2.32-1.88v0c-0.747 0-1.463 0.153-2.15 0.46-0.687 0.307-1.173 0.723-1.46 1.25z"
                                                                                            fill="#61777f"
                                                                                            fill-rule="nonzero"
                                                                                            stroke="none"
                                                                                            stroke-width="1"
                                                                                            stroke-linecap="butt"
                                                                                            stroke-linejoin="miter"
                                                                                            stroke-miterlimit="10"
                                                                                            stroke-dasharray=""
                                                                                            stroke-dashoffset="0"
                                                                                            font-family="none"
                                                                                            font-weight="none"
                                                                                            font-size="none"
                                                                                            text-anchor="none"
                                                                                            style="mix-blend-mode: normal"
                                                                                            data-fill-palette-color="primary"
                                                                                            opacity="1"></path>
                                                                                    </g>
                                                                                </svg>
                                                                            </g>
                                                                        </svg>
                                                                    </g>
                                                                </svg>
                                                            </g>
                                                        </svg>
                                                    </g>
                                                </svg>
                                            </g>
                                        </svg>
                                    </g>
                                </svg>
                            </g>
                            <path
                                d="M284.754 41.215 L284.754 0 13.554 0 13.554 247.2 284.754 247.2 284.754 205.985 266.313 205.985 266.313 228.758 31.996 228.758 31.996 18.442 266.313 18.442 266.313 41.215Z"
                                fill="#61777f" stroke="transparent"
                                data-fill-palette-color="tertiary"></path>
                        </svg>
                    </g>
                    <defs></defs>
                </svg>
                <rect width="395.52" height="247.2" fill="none" stroke="none" visibility="hidden"></rect>
            </g>
        </svg>
    </g>
</svg>